<svg xmlns="http://www.w3.org/2000/svg" width="13.194" height="15.424" viewBox="0 0 13.194 15.424">
  <path id="Icon_payment-invoice-sign" data-name="Icon payment-invoice-sign" d="M19.11,21.019a.757.757,0,0,0,.241.6.78.78,0,0,0,.572.241h4.67v9.1a.722.722,0,0,1-.241.572.779.779,0,0,1-.572.241H12.211a.779.779,0,0,1-.572-.241.721.721,0,0,1-.241-.572v-13.8a.721.721,0,0,1,.241-.572.781.781,0,0,1,.572-.241h6.9Zm1.085-.271V16.681a3.74,3.74,0,0,1,.3.241l3.525,3.525a3.667,3.667,0,0,1,.241.3H20.194Z" transform="translate(-11.398 -16.35)" fill="#f8afaf"/>
</svg>
