<svg xmlns="http://www.w3.org/2000/svg" width="21.454" height="21.062" viewBox="0 0 21.454 21.062">
  <path id="Icon_simple-microsoftexcel" data-name="Icon simple-microsoftexcel" d="M21.054,2.906H13.867v1.33h2.119v2.1H13.867v.67h2.119V9.117H13.867v.689h2.119V11.8H13.867v.8h2.119v2H13.867v.8h2.119V17.4H13.867v1.465h7.187c.114-.034.208-.168.284-.4a1.96,1.96,0,0,0,.115-.569V3.149c0-.114-.039-.183-.115-.207A.983.983,0,0,0,21.054,2.906ZM20.122,17.4H16.674V15.393h3.448V17.4Zm0-2.805H16.674v-2h3.448Zm0-2.8H16.674V9.815h3.448V11.8Zm0-2.682H16.674v-2.1h3.448V9.117h0Zm0-2.788H16.674V4.237h3.448V6.328ZM0,2.574V19.2l12.658,2.189V.328L0,2.581ZM7.5,15.152q-.072-.2-.678-1.665c-.4-.98-.644-1.55-.714-1.713H6.088L4.731,15.005l-1.815-.122L5.068,10.86,3.1,6.838l1.85-.1L6.171,9.888h.024L7.576,6.6l1.912-.121L7.211,10.83l2.346,4.441L7.5,15.15Z" transform="translate(0 -0.329)"/>
</svg>
