<svg xmlns="http://www.w3.org/2000/svg" width="46.692" height="52.889" viewBox="0 0 46.692 52.889">
  <path id="Path_3563" data-name="Path 3563" d="M108.308,0a3.058,3.058,0,0,1,3.137,2.958v20.31a3.143,3.143,0,0,1-6.276,0V2.958A3.059,3.059,0,0,1,108.308,0m-5,9.172V14.93A16.645,16.645,0,0,0,90.855,30.772c0,9.132,7.8,16.538,17.453,16.538s17.451-7.405,17.451-16.538a16.647,16.647,0,0,0-12.45-15.843V9.172c10.482,2.144,18.344,11,18.344,21.6,0,12.21-10.461,22.116-23.345,22.116S84.961,42.982,84.961,30.772c0-10.6,7.862-19.456,18.342-21.6" transform="translate(-84.961)" fill="#1d1d1f" fill-rule="evenodd"/>
</svg>
